<svg width="312" height="247" viewBox="0 0 312 247" fill="none" xmlns="http://www.w3.org/2000/svg">
<mask id="path-1-inside-1_327_2020" fill="white">
<path fill-rule="evenodd" clip-rule="evenodd" d="M142.156 0.508462C139.395 1.86167 136.28 5.00162 134.258 8.46956L132.666 11.2002L128.829 7.46648C125.086 3.82195 124.799 3.73165 116.935 3.73165C109.768 3.73165 108.635 3.9995 106.674 6.16027C105.118 7.87371 104.568 9.77673 104.805 12.6177L105.141 16.6454L113.013 18.41C123.771 20.8216 124.195 20.7745 128.8 16.6664L132.855 13.049L135.476 15.2451C141.209 20.0502 153.977 19.7302 156.537 14.7164C158.018 11.8151 156.031 5.22937 152.914 2.71237C150.022 0.378064 144.662 -0.719481 142.156 0.508462ZM63.7943 3.14976C63.3053 4.81813 63.4515 5.21028 64.2858 4.46592C64.9402 3.8821 65.2529 2.81374 64.983 2.08942C64.7019 1.33816 64.1926 1.7935 63.7943 3.14976ZM163.985 4.33151C161.053 5.32672 158.555 9.47071 158.555 13.338C158.555 14.3191 160.454 16.54 162.772 18.2726C166.299 20.9089 167.686 21.3453 171.248 20.944C173.591 20.6802 177.259 19.2728 179.4 17.8151C182.785 15.5129 183.295 14.5979 183.295 10.8241C183.295 7.019 182.912 6.34985 180.203 5.40291C175.432 3.73662 167.316 3.19996 163.985 4.33151ZM80.878 7.16543C78.2026 9.55203 77.591 10.9524 77.591 14.6893C77.591 20.1334 75.8075 20.6892 72.2203 16.3615C69.093 12.5876 63.2603 10.9234 55.0244 11.4551C47.5858 11.9346 44.4698 13.7854 43.451 18.3287C42.8358 21.0714 42.4243 21.2871 37.7912 21.2871C35.0431 21.2871 31.8674 21.5971 30.7351 21.9763C28.9211 22.5832 28.8594 22.4627 30.2177 20.973C32.848 18.0889 29.4576 18.9568 24.5491 22.4247L20.1005 25.5676L24.6548 29.471C27.1591 31.6178 29.9872 34.7175 30.9385 36.3597C31.9652 38.1302 33.5654 39.3441 34.8732 39.3441C36.0865 39.3441 40.4125 36.8211 44.4877 33.7373C52.6336 27.5729 55.183 27.2409 60.5952 31.6438C63.2377 33.7936 63.2591 33.7946 62.0536 31.723C60.368 28.828 62.3101 27.306 67.6919 27.306C70.9811 27.306 72.949 26.5107 76.2562 23.8451L80.5507 20.3843L87.7857 21.3172C98.0806 22.6443 98.698 22.5712 100.744 19.7863C103.248 16.3776 101.965 10.7748 97.8355 7.09229C95.2311 4.76793 93.6523 4.23319 89.3983 4.23319C85.1139 4.23319 83.5689 4.76488 80.878 7.16543ZM46.2228 6.32483C44.7408 6.85347 43.758 7.48958 44.0369 7.73834C44.6316 8.27003 52.8518 6.35995 52.8518 5.69081C52.8518 4.93938 49.0971 5.29866 46.2228 6.32483ZM188.073 10.9283C184.953 12.8705 184.559 19.2627 187.404 21.8007C192.169 26.0511 198.118 26.2749 202.498 22.3675C206.404 18.8825 206.978 13.5335 203.728 10.9092C201.071 8.76355 191.534 8.77558 188.073 10.9283ZM36.9648 11.9446C35.6064 13.4343 35.6682 13.5547 37.4821 12.9478C38.6145 12.5685 40.3855 12.2515 41.4178 12.2435C43.0394 12.2294 43.0652 12.0961 41.6068 11.2554C39.2869 9.9182 38.7393 9.99952 36.9648 11.9446ZM256.935 31.9217C258.82 38.1755 258.41 43.8895 255.541 51.3821C253.957 55.5202 252.279 59.2941 251.813 59.7686C251.001 60.5973 241.026 58.298 237.04 56.3629C235.983 55.8512 233.05 55.137 230.518 54.7758C226.549 54.2101 225.597 53.552 223.587 49.9917C220.922 45.2708 213.677 36.9847 212.856 37.718C212.552 37.9878 213.371 39.2278 214.672 40.4747C217.509 43.1902 222.039 51.2597 221.166 52.0392C220.825 52.3432 215.327 51.2176 208.948 49.5373C202.57 47.858 193.808 45.7473 189.479 44.8466C180.929 43.0678 150.822 41.2803 148.997 42.443C148.379 42.8372 144.33 43.4642 140.001 43.8363C127.593 44.9037 121.019 46.7265 101.768 54.4379C91.8723 58.4012 82.2577 62.1582 80.4022 62.7861C78.5468 63.4142 74.3266 65.8448 71.0239 68.1882C65.1326 72.3684 63.9439 72.874 60.8921 72.5008C60.0566 72.3984 59.6438 72.7045 59.9744 73.1819C61.3722 75.2004 52.3559 81.7902 49.3568 80.9414C47.859 80.5172 47.4171 80.7459 47.8388 81.7261C48.1649 82.4863 47.4497 83.9019 46.2487 84.8719C44.1594 86.5592 43.6927 86.5312 35.5175 84.2318C30.816 82.9097 27.3536 81.4511 27.8225 80.9897C28.2915 80.5292 28.043 80.4771 27.2693 80.8742C26.4967 81.2706 25.8637 81.2013 25.8637 80.7188C25.8637 80.2373 23.9666 79.0556 21.6467 78.0945L17.4299 76.3469L20.8033 79.1829C22.6588 80.7429 26.9499 83.8156 30.3404 86.0115L36.5037 90.0041L30.9026 90.6683C21.3455 91.8029 12.9566 91.5711 7.20696 90.0152C0.13719 88.1022 -0.0922095 88.1282 3.78059 90.4054C5.54943 91.4457 11.8264 93.5694 17.729 95.1244C27.7394 97.7616 28.2217 98.0064 24.9124 98.7718C22.9613 99.2223 21.3656 100.03 21.3656 100.567C21.3656 102.058 9.86192 101.724 4.63971 100.08C2.08821 99.2775 0 98.9493 0 99.3516C0 99.7539 3.82219 101.352 8.49452 102.902C15.5328 105.237 16.762 105.963 15.6655 107.141C14.7771 108.096 11.9884 108.563 7.17211 108.563C1.62153 108.563 0 108.895 0 110.033C0 111.039 1.77222 111.713 5.62253 112.168C8.71493 112.534 11.2383 113.114 11.2316 113.457C11.2237 113.799 9.4526 115.1 7.2958 116.346C3.38702 118.605 2.17367 120.601 4.7083 120.601C5.44261 120.601 4.68357 121.867 3.02154 123.415C0.19229 126.049 0.00337352 126.8 0.0506029 135.202C0.0989566 143.948 0.148435 144.113 2.0185 141.736C3.07328 140.394 11.0202 132.945 19.6788 125.183C34.8856 111.551 35.4332 111.173 35.7425 114.08C36.2282 118.644 39.0013 129.398 41.4606 136.253C49.8708 159.697 71.6423 181.458 96.4164 191.181C108.681 195.996 117.716 197.273 139.439 197.262C156.978 197.254 160.357 196.966 170.519 194.631C190.404 190.058 209.986 181.229 222.493 171.198C242.122 155.454 258.399 121.387 255.88 101.324C255.054 94.745 252.525 85.5852 250.29 81.0659C247.31 75.0429 247.281 74.455 249.957 74.458C251.329 74.4601 259.79 77.4223 268.757 81.0409C277.725 84.6593 285.695 87.8664 286.467 88.1673C287.518 88.5757 287.873 86.9184 287.873 81.6197C287.873 73.5281 288.356 73.9855 276.067 70.4001C265.292 67.2564 264.669 66.7266 267.981 63.5154C271.627 59.9784 289.986 43.3052 286.467 43.3052C291.392 38.3543 274.8 46.59 267.416 54.6284C262.469 60.0144 258.605 63.359 257.553 63.1634C255.468 62.7751 255.515 62.416 259.227 50.379C262.082 41.1247 262.114 40.6974 260.356 35.6163C258.413 30.0006 255.366 26.7071 256.935 31.9217ZM139.928 35.2261C140.346 35.8301 141.734 36.8232 143.01 37.4321C144.675 38.2266 145.118 38.2295 144.572 37.4431C144.154 36.8393 142.766 35.8461 141.49 35.2371C139.826 34.4426 139.383 34.4397 139.928 35.2261ZM164.741 52.8989C173.29 53.8529 175.1 54.9845 175.923 59.8921C176.487 63.2506 177.57 64.8205 181.026 67.2974C183.437 69.0269 185.688 70.041 186.028 69.5506C186.369 69.0599 184.902 67.4719 182.768 66.0204C178.178 62.8974 176.306 57.1865 179.064 54.7258C180.555 53.3964 181.619 53.4165 188.485 54.8982C192.742 55.8172 197.647 57.4663 199.386 58.5639C201.763 60.0646 202.916 60.2833 204.045 59.4467C205.962 58.0271 209.159 60.6334 209.159 63.6147C209.159 65.3944 209.403 65.4906 210.975 64.328C212.536 63.1704 213.156 63.3631 215.418 65.7094C216.998 67.3495 219.19 68.436 220.912 68.436C225.081 68.436 224.458 70.0993 218.435 75.055C215.497 77.4716 213.76 79.4538 214.574 79.4598C216.594 79.4748 220.463 77.621 223.413 75.2274C226.023 73.1098 228.846 73.6865 227.799 76.1233C227.372 77.1113 227.807 77.4947 229.127 77.3011C230.205 77.1424 231.7 77.3562 232.45 77.7765C234.333 78.8299 232.023 83.2417 229.167 84.0514C224.817 85.2822 227.922 86.9947 234.293 86.8783C237.786 86.8141 240.645 87.0678 240.645 87.442C240.645 87.8162 239.127 89.1234 237.271 90.3472C232.98 93.1771 233.029 94.1612 237.553 95.993C241.17 97.4587 241.141 97.4677 234.741 96.8838C230.34 96.4816 228.275 96.6511 228.275 97.4125C228.275 98.0274 229.817 98.531 231.705 98.531C233.59 98.531 236.557 99.1882 238.297 99.9907C241.219 101.339 241.506 102.004 242.072 108.768C242.408 112.793 242.294 116.455 241.816 116.904C241.34 117.354 238.374 116.969 235.229 116.051C227.646 113.838 225.055 114.725 232.229 117.078C239.573 119.486 241.19 121.214 238.952 124.261C238.027 125.519 237.271 127.064 237.271 127.693C237.271 128.323 236.005 130.179 234.46 131.818C232.913 133.457 231.649 135.498 231.649 136.352C231.649 137.547 230.861 137.765 228.238 137.297L224.827 136.689L226.832 139.146C227.935 140.498 229.47 141.618 230.243 141.637C231.017 141.653 231.649 142.33 231.649 143.141C231.649 143.991 230.983 144.386 230.076 144.075C229.211 143.78 228.168 144.019 227.76 144.609C227.352 145.198 225.999 145.68 224.754 145.68C222.733 145.68 222.53 146.232 222.853 150.845C223.193 155.682 223.022 156.067 220.179 156.93C217.745 157.669 216.464 157.405 213.726 155.599C208.411 152.093 208.241 154.261 213.492 158.585L218.201 162.463L214.317 165.107C211.1 167.296 209.936 167.581 207.546 166.772C204.225 165.646 203.705 167.043 206.306 170.104C208.519 172.711 207.244 174.772 203.416 174.772C200.983 174.772 200.162 175.247 200.162 176.656C200.162 177.797 198.855 179.024 196.854 179.763C194.095 180.783 193.12 180.719 190.981 179.383C187.572 177.253 184.419 177.332 184.419 179.547C184.419 180.517 183.361 181.901 182.066 182.621C180.047 183.749 179.495 183.677 178.152 182.111C176.791 180.523 176.446 180.483 175.461 181.794C174.841 182.621 174.326 184.151 174.315 185.195C174.3 186.891 173.651 187.03 168.129 186.523C164.736 186.211 161.722 186.296 161.433 186.714C161.143 187.133 158.985 187.398 156.638 187.303C151.347 187.091 149.559 188.249 149.559 191.889C149.559 193.444 149.106 194.966 148.553 195.271C147.432 195.89 146.186 193.6 146.186 190.921C146.186 188.843 141.285 184.804 138.763 184.804C137.781 184.804 136.724 183.932 136.412 182.867C136.065 181.685 135.211 181.146 134.222 181.486C133.278 181.808 132.737 181.518 132.927 180.79C133.107 180.1 132.622 179.33 131.848 179.078C131.076 178.825 130.443 179.332 130.443 180.206C130.443 182.284 127.468 182.254 126.157 180.162C125.383 178.927 124.639 178.775 123.11 179.539C121.529 180.328 120.546 180.028 118.608 178.161C117.244 176.849 115.326 175.776 114.345 175.776C113.365 175.776 112.031 174.985 111.382 174.02C110.273 172.366 110.105 172.379 108.516 174.21C107.587 175.282 106.828 175.62 106.828 174.964C106.828 174.307 106.053 173.769 105.107 173.769C104.159 173.769 103.089 173.083 102.729 172.246C102.369 171.41 101.499 170.786 100.796 170.86C94.1426 171.572 94.0998 169.489 100.643 163.397C106.916 157.557 107.236 155.464 101.206 159.724C98.7318 161.472 96.7076 163.302 96.7076 163.79C96.7076 164.277 95.3345 165.318 93.6568 166.103C90.8399 167.418 90.5115 167.363 89.3746 165.381C88.6966 164.202 87.2865 163.299 86.2407 163.374C83.7061 163.561 83.8421 162.16 86.7096 158.568C89.5614 154.996 88.8248 153.716 85.5818 156.609C83.1438 158.784 79.84 158.494 79.84 156.106C79.84 154.651 78.7604 154.362 74.4985 154.67C71.269 154.903 71.3163 154.024 74.7796 149.477C78.7549 144.259 78.44 143.127 72.9602 142.933C67.1905 142.726 66.5787 142.203 69.1505 139.667C71.1262 137.72 71.1239 137.654 69.0504 137.622C63.918 137.547 61.7882 133.772 63.131 127.132C63.3997 125.806 62.6721 124.796 60.964 124.123C56.6931 122.439 58.164 119.214 63.5346 118.486C66.0086 118.15 66.9497 117.812 65.6273 117.734C64.3038 117.655 62.0267 116.721 60.5671 115.659C58.2224 113.954 58.1348 113.65 59.8159 113.066C61.3733 112.525 61.6028 111.523 61.0764 107.56C60.4749 103.03 60.6065 102.695 63.1084 102.379C65.4328 102.086 65.7892 101.49 65.8241 97.8258C65.8478 95.5066 66.1413 93.3638 66.4775 93.0638C67.4536 92.1931 72.2822 92.0997 75.3419 92.8932C78.0947 93.6064 78.0891 93.5854 75.0608 91.8319C70.6572 89.2819 71.2127 87.0789 77.0288 84.0382C80.3358 82.3088 82.089 80.7018 82.089 79.3966C82.089 76.7402 84.9092 75.9055 88.6268 77.4626C92.5424 79.1018 98.969 80.4479 98.9138 79.6163C98.8903 79.2602 96.8437 77.7173 94.3652 76.1875C89.7817 73.3585 89.4152 71.4456 93.4545 71.4456C94.6846 71.4456 97.7724 70.5487 100.316 69.4522C106.634 66.7296 115.733 65.6893 117.048 67.5412C117.863 68.6898 118.042 68.6968 118.056 67.5763C118.066 66.7808 118.774 66.4547 119.76 66.7928C122.107 67.5964 121.864 66.1708 119.125 63.0641C116.112 59.6473 117.295 57.7181 121.053 59.9161C123.629 61.4219 123.801 61.4148 123.48 59.8237C122.678 55.8573 126.104 57.684 129.482 63.0229C131.486 66.1899 133.323 68.2514 133.566 67.6034C133.807 66.9553 132.697 64.3381 131.1 61.7871C129.502 59.2359 128.194 57.0339 128.194 56.8945C128.194 56.3067 134.696 54.519 138.581 54.0385C141.629 53.6614 143.046 53.9382 143.742 55.0488C145.074 57.1714 146.157 57.1985 147.445 55.1441C148.051 54.179 149.756 53.3884 151.236 53.3884C152.715 53.3884 154.25 52.919 154.648 52.3441C155.046 51.7704 156.214 51.5186 157.244 51.7855C158.274 52.0522 161.648 52.5539 164.741 52.8989ZM196.316 67.8893C194.667 70.3973 192.774 72.4486 192.105 72.4486C191.346 72.4486 191.446 73.0445 192.369 74.0376C193.662 75.4271 194.255 74.9074 197.079 69.9248C201.008 62.9948 200.471 61.5633 196.316 67.8893ZM204.35 69.1903C201.441 72.0584 201.841 74.4049 204.793 71.7726C206.103 70.6038 206.975 69.1151 206.732 68.4631C206.443 67.6897 205.618 67.9414 204.35 69.1903ZM140.843 75.9819C138.833 76.5777 136.582 77.606 135.839 78.2681C135.098 78.9292 133.793 79.4708 132.94 79.4708C130.002 79.4708 118.017 89.8477 114.494 95.4423C112.555 98.5211 110.418 101.672 109.742 102.446C109.067 103.221 108.437 104.801 108.343 105.958C108.248 107.114 107.605 110.88 106.915 114.324C106.223 117.769 105.915 121.606 106.231 122.851C106.546 124.097 107.139 126.469 107.546 128.125C107.954 129.78 109.223 132.21 110.369 133.527C111.514 134.843 112.451 136.322 112.451 136.816C112.451 137.31 114.518 140.046 117.043 142.898C120.432 146.721 123.894 149.124 130.246 152.057C138.782 156.001 138.959 156.035 150.945 155.931C161.318 155.841 163.792 155.485 168.385 153.422C179.579 148.394 187.596 139.754 190.688 129.393C192.711 122.613 192.703 111.54 190.671 104.727C188.736 98.2441 182.113 89.4052 175.999 85.1488C173.517 83.4214 170.818 81.437 170.001 80.7389C169.184 80.0416 167.835 79.4708 167.002 79.4708C166.171 79.4708 165.321 79.0315 165.114 78.4949C164.91 77.9592 161.072 77.2167 156.588 76.8465C152.103 76.4763 148.435 75.8143 148.435 75.3769C148.435 74.3637 145.519 74.5964 140.843 75.9819ZM192.528 78.0042C191.33 79.2161 191.378 79.4708 192.81 79.4708C193.76 79.4708 194.54 78.7937 194.54 77.966C194.54 76.1363 194.371 76.1403 192.528 78.0042ZM22.4902 85.9915C29.1213 89.1595 31.0522 89.1774 25.3014 86.0176C22.8275 84.6583 20.0444 83.5527 19.1166 83.5598C18.189 83.5678 19.707 84.6623 22.4902 85.9915ZM171.37 99.9455C171.037 100.723 171.515 102.658 172.435 104.245C173.958 106.872 173.922 107.352 172.031 109.588C169.373 112.731 168.564 111.923 168.076 105.646C167.769 101.687 168.102 100.354 169.586 99.5814C172.068 98.2903 172.081 98.2933 171.37 99.9455ZM100.995 120.283C101.806 120.573 102.776 120.536 103.15 120.204C103.523 119.87 102.86 119.634 101.675 119.677C100.364 119.725 100.098 119.963 100.995 120.283ZM104.017 132.639C103.634 133.191 103.858 133.642 104.513 133.642C105.167 133.642 105.704 133.191 105.704 132.639C105.704 132.087 105.481 131.636 105.208 131.636C104.934 131.636 104.399 132.087 104.017 132.639ZM283.237 141.44L280.292 144.222L283.322 147.459C287.297 151.708 288.386 151.586 285.498 147.218C283.134 143.643 283.402 141.667 286.254 141.667C287.145 141.667 287.873 140.99 287.873 140.163C287.873 137.948 286.543 138.315 283.237 141.44ZM275.361 147.435C273.962 149.026 274.002 149.061 275.785 147.815C277.659 146.503 278.254 145.68 277.328 145.68C277.095 145.68 276.208 146.469 275.361 147.435ZM271.903 150.837C271.593 151.587 272.908 153.308 274.827 154.664C277.286 156.402 277.781 156.55 276.504 155.166C275.509 154.086 274.193 152.364 273.581 151.339C272.744 149.939 272.325 149.814 271.903 150.837ZM0 159.1C0 161.875 1.07953 163.126 7.59043 167.902C16.6327 174.536 28.4748 180.794 27.4414 178.392C27.0646 177.514 24.1511 175.133 20.9687 173.1C17.7851 171.067 11.7657 166.358 7.59043 162.635L0 155.863V159.1ZM202.411 157.718C202.411 158.269 202.948 158.722 203.603 158.722C204.257 158.722 204.481 158.269 204.098 157.718C203.715 157.166 203.181 156.715 202.908 156.715C202.634 156.715 202.411 157.166 202.411 157.718ZM115.323 160.261C113.583 161.435 113.42 161.993 114.525 162.98C115.632 163.966 116.136 163.915 116.978 162.726C117.936 161.374 118.489 158.673 117.792 158.754C117.637 158.77 116.526 159.45 115.323 160.261ZM265.198 159.498C263.55 159.687 261.921 160.492 261.578 161.288C261.105 162.386 261.961 162.736 265.137 162.747C267.862 162.757 272.164 164.146 277.473 166.727C285.268 170.518 288.996 170.89 282.532 167.233C280.832 166.271 278.175 164.443 276.628 163.169C273.185 160.333 269.166 159.044 265.198 159.498ZM285.843 162.232C285.866 163.888 286.118 164.443 286.405 163.467C286.689 162.491 286.67 161.137 286.363 160.457C286.054 159.779 285.821 160.577 285.843 162.232ZM128.849 161.596C128.365 162.295 128.273 163.139 128.644 163.469C129.65 164.367 130.748 163.047 130.203 161.593C129.823 160.572 129.558 160.572 128.849 161.596ZM198.475 161.73C198.093 162.282 198.287 162.735 198.905 162.735C199.524 162.735 200.343 162.282 200.724 161.73C201.107 161.179 200.914 160.728 200.294 160.728C199.677 160.728 198.858 161.179 198.475 161.73ZM259.132 166.845C258.712 167.45 254.759 169.508 250.349 171.418C240.137 175.842 236.19 178.061 231.007 182.297C228.585 184.275 223.286 186.86 218.381 188.458C213.226 190.134 208.512 192.469 206.303 194.44C200.647 199.486 183.766 205.671 161.367 210.903C155.88 212.186 155.637 212.404 151.326 219.974C146.478 228.485 144.598 238.567 147.313 241.484C149.566 243.908 150.684 243.234 150.684 239.457C150.684 233.741 159.953 215.902 162.922 215.902C164.471 215.902 162.345 223.952 159.211 229.946C157.625 232.98 156.323 236.523 156.318 237.818C156.311 239.11 155.447 241.468 154.398 243.053C153.348 244.637 152.85 246.257 153.292 246.652C154.705 247.913 156.465 245.361 157.101 241.13C157.527 238.305 158.377 236.836 159.824 236.426C160.982 236.098 161.93 235.037 161.93 234.066C161.93 233.096 163.194 229.072 164.741 225.124C166.286 221.176 167.552 217.062 167.552 215.981C167.552 214.898 168.131 213.695 168.839 213.304C169.778 212.786 169.974 214.486 169.566 219.591C169.25 223.522 169.63 229.19 170.432 232.53L171.861 238.474L171.955 231.657C172.076 222.994 174.992 212.539 177.946 210.192C180.199 208.401 180.219 208.421 179.508 211.889C177.618 221.12 174.873 241.985 175.547 241.985C176.959 241.985 177.811 238.519 178.753 228.947C179.599 220.343 182.11 211.912 184.55 209.466C185.055 208.96 185.359 214.451 185.225 221.665C184.989 234.425 185.074 234.952 188.355 240.876L191.729 246.966L199.318 246.984C203.495 246.994 206.909 246.626 206.909 246.171C206.909 245.715 205.73 244.355 204.289 243.147C200.643 240.092 197.113 233.348 196.184 227.665C195.508 223.53 195.793 222.347 198.276 219.001C201.189 215.073 204.276 206.837 204.888 201.364C205.093 199.526 205.944 198.242 207.088 198.049C209.633 197.618 210.77 202.639 209.238 207.56C207.794 212.2 207.689 215.902 209.001 215.902C209.535 215.902 211.07 213.342 212.411 210.215C214.371 205.642 214.704 203.382 214.108 198.678C213.255 191.959 214.73 190.91 217.745 196.089C218.953 198.166 219.831 198.846 220.166 197.962C220.463 197.175 221.996 198.91 223.71 201.975C230.644 214.377 233.316 218.354 233.654 216.786C233.847 215.892 231.473 210.479 228.378 204.758C223.07 194.95 222.847 194.219 224.473 192.006C225.422 190.713 225.904 188.979 225.549 188.15C224.038 184.641 227.93 187.802 230.779 192.395C233.863 197.371 234.891 197.297 232.741 192.253C232.105 190.761 231.842 189.313 232.155 189.034C232.892 188.376 238.37 198.849 238.384 200.943C238.397 202.888 247.789 221.674 249.523 223.221C251.787 225.24 250.914 222.379 246.316 212.714C238.653 196.602 233.032 183.329 233.542 182.546C234.737 180.709 238.514 182.098 241.713 185.556C246.723 190.966 254.803 205.478 256.261 211.687C257.947 218.855 257.781 224.027 255.789 226.376C254.611 227.764 254.138 231.003 254.138 237.662V247H271.006H312L287.836 237.721C287.799 228.505 289.936 233.529 287.836 235.773C286.675 237.016 283.216 234.879 282.781 237.223C285.464 234.169 289.793 227.861 286.268 221.338C284.219 217.543 283.087 219.488 280.639 218.13C278.561 216.978 274.197 218.199 272.598 217.328C269.816 215.814 260.129 225.705 260.081 216.834C260.034 207.762 259.917 207.361 254.555 197.969C251.543 192.69 247.413 186.143 245.378 183.418C243.08 180.34 242.078 178.108 242.731 177.524C244.671 175.793 251.963 179.96 256.617 185.46C259.113 188.41 261.379 190.822 261.654 190.822C263.098 190.822 255.385 180.214 252.025 177.582C248.35 174.704 248.233 174.429 250.148 173.177C251.273 172.444 254.47 171.54 257.255 171.168C261.794 170.56 263.341 170.956 272.259 175.006C277.727 177.492 281.971 179.19 281.688 178.783C281.109 177.946 261.187 165.743 260.401 165.743C260.123 165.743 259.55 166.239 259.132 166.845ZM193.315 171.37C192.039 172.738 192.129 173.189 193.905 174.347C196.546 176.069 197.913 175.338 197.913 172.206C197.913 169.392 195.553 168.962 193.315 171.37ZM155.182 175.776C155.182 176.328 155.718 176.778 156.373 176.778C157.027 176.778 157.251 176.328 156.869 175.776C156.486 175.224 155.951 174.772 155.678 174.772C155.405 174.772 155.182 175.224 155.182 175.776ZM173.174 175.657C173.174 176.209 173.679 176.939 174.299 177.28C174.918 177.62 175.423 177.449 175.423 176.897C175.423 176.345 174.918 175.614 174.299 175.274C173.679 174.932 173.174 175.105 173.174 175.657ZM263.135 188.092C263.135 188.283 264.718 189.767 266.654 191.388C269.589 193.844 269.957 193.961 268.878 192.1C267.792 190.23 263.135 186.979 263.135 188.092ZM262.027 194.853C262.011 196.355 267.202 203.863 268.257 203.863C268.814 203.863 265.277 197.558 263.196 194.835C262.175 193.5 262.043 193.504 262.027 194.853ZM54.8062 200.449C53.2758 201.813 53.9561 202.861 56.3704 202.861C60.1488 202.861 75.0889 207.926 90.5363 214.446C95.9463 216.73 97.4206 216.99 99.222 215.987C101.193 214.888 125.485 214.154 126.612 215.159C126.847 215.368 125.304 217.228 123.185 219.293C118.533 223.822 116.275 228.908 114.331 239.226L112.867 247H119.307H125.747L126.487 243.093C127.82 236.055 133.116 227.647 138.997 223.237C142.023 220.967 145.413 217.711 146.531 216L148.562 212.892H136.249C110.771 212.892 85.737 209.398 68.0327 203.371C58.2438 200.038 55.8565 199.51 54.8062 200.449ZM197.128 214.12C193.816 219.177 192.29 218.8 192.29 212.93C192.29 208.644 192.806 207.332 195.383 205.073L198.475 202.359L198.824 206.678C199.053 209.514 198.471 212.069 197.128 214.12ZM217.601 205.87C218.696 210.643 224.108 221.896 225.314 221.91C226.644 221.925 225.672 218.622 222.072 210.887C218.423 203.047 216.44 200.821 217.601 205.87ZM134.975 223.87C134.33 224.945 133.223 226.141 132.512 226.534C131.646 227.012 131.52 226.783 132.131 225.838C134.543 222.109 137.089 220.348 134.975 223.87ZM164.763 239.551C165.958 244.371 166.364 245.147 167.393 244.58C168.779 243.815 167.62 239.271 165.669 237.827C164.284 236.802 164.147 237.064 164.763 239.551Z"/>
</mask>
<path fill-rule="evenodd" clip-rule="evenodd" d="M142.156 0.508462C139.395 1.86167 136.28 5.00162 134.258 8.46956L132.666 11.2002L128.829 7.46648C125.086 3.82195 124.799 3.73165 116.935 3.73165C109.768 3.73165 108.635 3.9995 106.674 6.16027C105.118 7.87371 104.568 9.77673 104.805 12.6177L105.141 16.6454L113.013 18.41C123.771 20.8216 124.195 20.7745 128.8 16.6664L132.855 13.049L135.476 15.2451C141.209 20.0502 153.977 19.7302 156.537 14.7164C158.018 11.8151 156.031 5.22937 152.914 2.71237C150.022 0.378064 144.662 -0.719481 142.156 0.508462ZM63.7943 3.14976C63.3053 4.81813 63.4515 5.21028 64.2858 4.46592C64.9402 3.8821 65.2529 2.81374 64.983 2.08942C64.7019 1.33816 64.1926 1.7935 63.7943 3.14976ZM163.985 4.33151C161.053 5.32672 158.555 9.47071 158.555 13.338C158.555 14.3191 160.454 16.54 162.772 18.2726C166.299 20.9089 167.686 21.3453 171.248 20.944C173.591 20.6802 177.259 19.2728 179.4 17.8151C182.785 15.5129 183.295 14.5979 183.295 10.8241C183.295 7.019 182.912 6.34985 180.203 5.40291C175.432 3.73662 167.316 3.19996 163.985 4.33151ZM80.878 7.16543C78.2026 9.55203 77.591 10.9524 77.591 14.6893C77.591 20.1334 75.8075 20.6892 72.2203 16.3615C69.093 12.5876 63.2603 10.9234 55.0244 11.4551C47.5858 11.9346 44.4698 13.7854 43.451 18.3287C42.8358 21.0714 42.4243 21.2871 37.7912 21.2871C35.0431 21.2871 31.8674 21.5971 30.7351 21.9763C28.9211 22.5832 28.8594 22.4627 30.2177 20.973C32.848 18.0889 29.4576 18.9568 24.5491 22.4247L20.1005 25.5676L24.6548 29.471C27.1591 31.6178 29.9872 34.7175 30.9385 36.3597C31.9652 38.1302 33.5654 39.3441 34.8732 39.3441C36.0865 39.3441 40.4125 36.8211 44.4877 33.7373C52.6336 27.5729 55.183 27.2409 60.5952 31.6438C63.2377 33.7936 63.2591 33.7946 62.0536 31.723C60.368 28.828 62.3101 27.306 67.6919 27.306C70.9811 27.306 72.949 26.5107 76.2562 23.8451L80.5507 20.3843L87.7857 21.3172C98.0806 22.6443 98.698 22.5712 100.744 19.7863C103.248 16.3776 101.965 10.7748 97.8355 7.09229C95.2311 4.76793 93.6523 4.23319 89.3983 4.23319C85.1139 4.23319 83.5689 4.76488 80.878 7.16543ZM46.2228 6.32483C44.7408 6.85347 43.758 7.48958 44.0369 7.73834C44.6316 8.27003 52.8518 6.35995 52.8518 5.69081C52.8518 4.93938 49.0971 5.29866 46.2228 6.32483ZM188.073 10.9283C184.953 12.8705 184.559 19.2627 187.404 21.8007C192.169 26.0511 198.118 26.2749 202.498 22.3675C206.404 18.8825 206.978 13.5335 203.728 10.9092C201.071 8.76355 191.534 8.77558 188.073 10.9283ZM36.9648 11.9446C35.6064 13.4343 35.6682 13.5547 37.4821 12.9478C38.6145 12.5685 40.3855 12.2515 41.4178 12.2435C43.0394 12.2294 43.0652 12.0961 41.6068 11.2554C39.2869 9.9182 38.7393 9.99952 36.9648 11.9446ZM256.935 31.9217C258.82 38.1755 258.41 43.8895 255.541 51.3821C253.957 55.5202 252.279 59.2941 251.813 59.7686C251.001 60.5973 241.026 58.298 237.04 56.3629C235.983 55.8512 233.05 55.137 230.518 54.7758C226.549 54.2101 225.597 53.552 223.587 49.9917C220.922 45.2708 213.677 36.9847 212.856 37.718C212.552 37.9878 213.371 39.2278 214.672 40.4747C217.509 43.1902 222.039 51.2597 221.166 52.0392C220.825 52.3432 215.327 51.2176 208.948 49.5373C202.57 47.858 193.808 45.7473 189.479 44.8466C180.929 43.0678 150.822 41.2803 148.997 42.443C148.379 42.8372 144.33 43.4642 140.001 43.8363C127.593 44.9037 121.019 46.7265 101.768 54.4379C91.8723 58.4012 82.2577 62.1582 80.4022 62.7861C78.5468 63.4142 74.3266 65.8448 71.0239 68.1882C65.1326 72.3684 63.9439 72.874 60.8921 72.5008C60.0566 72.3984 59.6438 72.7045 59.9744 73.1819C61.3722 75.2004 52.3559 81.7902 49.3568 80.9414C47.859 80.5172 47.4171 80.7459 47.8388 81.7261C48.1649 82.4863 47.4497 83.9019 46.2487 84.8719C44.1594 86.5592 43.6927 86.5312 35.5175 84.2318C30.816 82.9097 27.3536 81.4511 27.8225 80.9897C28.2915 80.5292 28.043 80.4771 27.2693 80.8742C26.4967 81.2706 25.8637 81.2013 25.8637 80.7188C25.8637 80.2373 23.9666 79.0556 21.6467 78.0945L17.4299 76.3469L20.8033 79.1829C22.6588 80.7429 26.9499 83.8156 30.3404 86.0115L36.5037 90.0041L30.9026 90.6683C21.3455 91.8029 12.9566 91.5711 7.20696 90.0152C0.13719 88.1022 -0.0922095 88.1282 3.78059 90.4054C5.54943 91.4457 11.8264 93.5694 17.729 95.1244C27.7394 97.7616 28.2217 98.0064 24.9124 98.7718C22.9613 99.2223 21.3656 100.03 21.3656 100.567C21.3656 102.058 9.86192 101.724 4.63971 100.08C2.08821 99.2775 0 98.9493 0 99.3516C0 99.7539 3.82219 101.352 8.49452 102.902C15.5328 105.237 16.762 105.963 15.6655 107.141C14.7771 108.096 11.9884 108.563 7.17211 108.563C1.62153 108.563 0 108.895 0 110.033C0 111.039 1.77222 111.713 5.62253 112.168C8.71493 112.534 11.2383 113.114 11.2316 113.457C11.2237 113.799 9.4526 115.1 7.2958 116.346C3.38702 118.605 2.17367 120.601 4.7083 120.601C5.44261 120.601 4.68357 121.867 3.02154 123.415C0.19229 126.049 0.00337352 126.8 0.0506029 135.202C0.0989566 143.948 0.148435 144.113 2.0185 141.736C3.07328 140.394 11.0202 132.945 19.6788 125.183C34.8856 111.551 35.4332 111.173 35.7425 114.08C36.2282 118.644 39.0013 129.398 41.4606 136.253C49.8708 159.697 71.6423 181.458 96.4164 191.181C108.681 195.996 117.716 197.273 139.439 197.262C156.978 197.254 160.357 196.966 170.519 194.631C190.404 190.058 209.986 181.229 222.493 171.198C242.122 155.454 258.399 121.387 255.88 101.324C255.054 94.745 252.525 85.5852 250.29 81.0659C247.31 75.0429 247.281 74.455 249.957 74.458C251.329 74.4601 259.79 77.4223 268.757 81.0409C277.725 84.6593 285.695 87.8664 286.467 88.1673C287.518 88.5757 287.873 86.9184 287.873 81.6197C287.873 73.5281 288.356 73.9855 276.067 70.4001C265.292 67.2564 264.669 66.7266 267.981 63.5154C271.627 59.9784 289.986 43.3052 286.467 43.3052C291.392 38.3543 274.8 46.59 267.416 54.6284C262.469 60.0144 258.605 63.359 257.553 63.1634C255.468 62.7751 255.515 62.416 259.227 50.379C262.082 41.1247 262.114 40.6974 260.356 35.6163C258.413 30.0006 255.366 26.7071 256.935 31.9217ZM139.928 35.2261C140.346 35.8301 141.734 36.8232 143.01 37.4321C144.675 38.2266 145.118 38.2295 144.572 37.4431C144.154 36.8393 142.766 35.8461 141.49 35.2371C139.826 34.4426 139.383 34.4397 139.928 35.2261ZM164.741 52.8989C173.29 53.8529 175.1 54.9845 175.923 59.8921C176.487 63.2506 177.57 64.8205 181.026 67.2974C183.437 69.0269 185.688 70.041 186.028 69.5506C186.369 69.0599 184.902 67.4719 182.768 66.0204C178.178 62.8974 176.306 57.1865 179.064 54.7258C180.555 53.3964 181.619 53.4165 188.485 54.8982C192.742 55.8172 197.647 57.4663 199.386 58.5639C201.763 60.0646 202.916 60.2833 204.045 59.4467C205.962 58.0271 209.159 60.6334 209.159 63.6147C209.159 65.3944 209.403 65.4906 210.975 64.328C212.536 63.1704 213.156 63.3631 215.418 65.7094C216.998 67.3495 219.19 68.436 220.912 68.436C225.081 68.436 224.458 70.0993 218.435 75.055C215.497 77.4716 213.76 79.4538 214.574 79.4598C216.594 79.4748 220.463 77.621 223.413 75.2274C226.023 73.1098 228.846 73.6865 227.799 76.1233C227.372 77.1113 227.807 77.4947 229.127 77.3011C230.205 77.1424 231.7 77.3562 232.45 77.7765C234.333 78.8299 232.023 83.2417 229.167 84.0514C224.817 85.2822 227.922 86.9947 234.293 86.8783C237.786 86.8141 240.645 87.0678 240.645 87.442C240.645 87.8162 239.127 89.1234 237.271 90.3472C232.98 93.1771 233.029 94.1612 237.553 95.993C241.17 97.4587 241.141 97.4677 234.741 96.8838C230.34 96.4816 228.275 96.6511 228.275 97.4125C228.275 98.0274 229.817 98.531 231.705 98.531C233.59 98.531 236.557 99.1882 238.297 99.9907C241.219 101.339 241.506 102.004 242.072 108.768C242.408 112.793 242.294 116.455 241.816 116.904C241.34 117.354 238.374 116.969 235.229 116.051C227.646 113.838 225.055 114.725 232.229 117.078C239.573 119.486 241.19 121.214 238.952 124.261C238.027 125.519 237.271 127.064 237.271 127.693C237.271 128.323 236.005 130.179 234.46 131.818C232.913 133.457 231.649 135.498 231.649 136.352C231.649 137.547 230.861 137.765 228.238 137.297L224.827 136.689L226.832 139.146C227.935 140.498 229.47 141.618 230.243 141.637C231.017 141.653 231.649 142.33 231.649 143.141C231.649 143.991 230.983 144.386 230.076 144.075C229.211 143.78 228.168 144.019 227.76 144.609C227.352 145.198 225.999 145.68 224.754 145.68C222.733 145.68 222.53 146.232 222.853 150.845C223.193 155.682 223.022 156.067 220.179 156.93C217.745 157.669 216.464 157.405 213.726 155.599C208.411 152.093 208.241 154.261 213.492 158.585L218.201 162.463L214.317 165.107C211.1 167.296 209.936 167.581 207.546 166.772C204.225 165.646 203.705 167.043 206.306 170.104C208.519 172.711 207.244 174.772 203.416 174.772C200.983 174.772 200.162 175.247 200.162 176.656C200.162 177.797 198.855 179.024 196.854 179.763C194.095 180.783 193.12 180.719 190.981 179.383C187.572 177.253 184.419 177.332 184.419 179.547C184.419 180.517 183.361 181.901 182.066 182.621C180.047 183.749 179.495 183.677 178.152 182.111C176.791 180.523 176.446 180.483 175.461 181.794C174.841 182.621 174.326 184.151 174.315 185.195C174.3 186.891 173.651 187.03 168.129 186.523C164.736 186.211 161.722 186.296 161.433 186.714C161.143 187.133 158.985 187.398 156.638 187.303C151.347 187.091 149.559 188.249 149.559 191.889C149.559 193.444 149.106 194.966 148.553 195.271C147.432 195.89 146.186 193.6 146.186 190.921C146.186 188.843 141.285 184.804 138.763 184.804C137.781 184.804 136.724 183.932 136.412 182.867C136.065 181.685 135.211 181.146 134.222 181.486C133.278 181.808 132.737 181.518 132.927 180.79C133.107 180.1 132.622 179.33 131.848 179.078C131.076 178.825 130.443 179.332 130.443 180.206C130.443 182.284 127.468 182.254 126.157 180.162C125.383 178.927 124.639 178.775 123.11 179.539C121.529 180.328 120.546 180.028 118.608 178.161C117.244 176.849 115.326 175.776 114.345 175.776C113.365 175.776 112.031 174.985 111.382 174.02C110.273 172.366 110.105 172.379 108.516 174.21C107.587 175.282 106.828 175.62 106.828 174.964C106.828 174.307 106.053 173.769 105.107 173.769C104.159 173.769 103.089 173.083 102.729 172.246C102.369 171.41 101.499 170.786 100.796 170.86C94.1426 171.572 94.0998 169.489 100.643 163.397C106.916 157.557 107.236 155.464 101.206 159.724C98.7318 161.472 96.7076 163.302 96.7076 163.79C96.7076 164.277 95.3345 165.318 93.6568 166.103C90.8399 167.418 90.5115 167.363 89.3746 165.381C88.6966 164.202 87.2865 163.299 86.2407 163.374C83.7061 163.561 83.8421 162.16 86.7096 158.568C89.5614 154.996 88.8248 153.716 85.5818 156.609C83.1438 158.784 79.84 158.494 79.84 156.106C79.84 154.651 78.7604 154.362 74.4985 154.67C71.269 154.903 71.3163 154.024 74.7796 149.477C78.7549 144.259 78.44 143.127 72.9602 142.933C67.1905 142.726 66.5787 142.203 69.1505 139.667C71.1262 137.72 71.1239 137.654 69.0504 137.622C63.918 137.547 61.7882 133.772 63.131 127.132C63.3997 125.806 62.6721 124.796 60.964 124.123C56.6931 122.439 58.164 119.214 63.5346 118.486C66.0086 118.15 66.9497 117.812 65.6273 117.734C64.3038 117.655 62.0267 116.721 60.5671 115.659C58.2224 113.954 58.1348 113.65 59.8159 113.066C61.3733 112.525 61.6028 111.523 61.0764 107.56C60.4749 103.03 60.6065 102.695 63.1084 102.379C65.4328 102.086 65.7892 101.49 65.8241 97.8258C65.8478 95.5066 66.1413 93.3638 66.4775 93.0638C67.4536 92.1931 72.2822 92.0997 75.3419 92.8932C78.0947 93.6064 78.0891 93.5854 75.0608 91.8319C70.6572 89.2819 71.2127 87.0789 77.0288 84.0382C80.3358 82.3088 82.089 80.7018 82.089 79.3966C82.089 76.7402 84.9092 75.9055 88.6268 77.4626C92.5424 79.1018 98.969 80.4479 98.9138 79.6163C98.8903 79.2602 96.8437 77.7173 94.3652 76.1875C89.7817 73.3585 89.4152 71.4456 93.4545 71.4456C94.6846 71.4456 97.7724 70.5487 100.316 69.4522C106.634 66.7296 115.733 65.6893 117.048 67.5412C117.863 68.6898 118.042 68.6968 118.056 67.5763C118.066 66.7808 118.774 66.4547 119.76 66.7928C122.107 67.5964 121.864 66.1708 119.125 63.0641C116.112 59.6473 117.295 57.7181 121.053 59.9161C123.629 61.4219 123.801 61.4148 123.48 59.8237C122.678 55.8573 126.104 57.684 129.482 63.0229C131.486 66.1899 133.323 68.2514 133.566 67.6034C133.807 66.9553 132.697 64.3381 131.1 61.7871C129.502 59.2359 128.194 57.0339 128.194 56.8945C128.194 56.3067 134.696 54.519 138.581 54.0385C141.629 53.6614 143.046 53.9382 143.742 55.0488C145.074 57.1714 146.157 57.1985 147.445 55.1441C148.051 54.179 149.756 53.3884 151.236 53.3884C152.715 53.3884 154.25 52.919 154.648 52.3441C155.046 51.7704 156.214 51.5186 157.244 51.7855C158.274 52.0522 161.648 52.5539 164.741 52.8989ZM196.316 67.8893C194.667 70.3973 192.774 72.4486 192.105 72.4486C191.346 72.4486 191.446 73.0445 192.369 74.0376C193.662 75.4271 194.255 74.9074 197.079 69.9248C201.008 62.9948 200.471 61.5633 196.316 67.8893ZM204.35 69.1903C201.441 72.0584 201.841 74.4049 204.793 71.7726C206.103 70.6038 206.975 69.1151 206.732 68.4631C206.443 67.6897 205.618 67.9414 204.35 69.1903ZM140.843 75.9819C138.833 76.5777 136.582 77.606 135.839 78.2681C135.098 78.9292 133.793 79.4708 132.94 79.4708C130.002 79.4708 118.017 89.8477 114.494 95.4423C112.555 98.5211 110.418 101.672 109.742 102.446C109.067 103.221 108.437 104.801 108.343 105.958C108.248 107.114 107.605 110.88 106.915 114.324C106.223 117.769 105.915 121.606 106.231 122.851C106.546 124.097 107.139 126.469 107.546 128.125C107.954 129.78 109.223 132.21 110.369 133.527C111.514 134.843 112.451 136.322 112.451 136.816C112.451 137.31 114.518 140.046 117.043 142.898C120.432 146.721 123.894 149.124 130.246 152.057C138.782 156.001 138.959 156.035 150.945 155.931C161.318 155.841 163.792 155.485 168.385 153.422C179.579 148.394 187.596 139.754 190.688 129.393C192.711 122.613 192.703 111.54 190.671 104.727C188.736 98.2441 182.113 89.4052 175.999 85.1488C173.517 83.4214 170.818 81.437 170.001 80.7389C169.184 80.0416 167.835 79.4708 167.002 79.4708C166.171 79.4708 165.321 79.0315 165.114 78.4949C164.91 77.9592 161.072 77.2167 156.588 76.8465C152.103 76.4763 148.435 75.8143 148.435 75.3769C148.435 74.3637 145.519 74.5964 140.843 75.9819ZM192.528 78.0042C191.33 79.2161 191.378 79.4708 192.81 79.4708C193.76 79.4708 194.54 78.7937 194.54 77.966C194.54 76.1363 194.371 76.1403 192.528 78.0042ZM22.4902 85.9915C29.1213 89.1595 31.0522 89.1774 25.3014 86.0176C22.8275 84.6583 20.0444 83.5527 19.1166 83.5598C18.189 83.5678 19.707 84.6623 22.4902 85.9915ZM171.37 99.9455C171.037 100.723 171.515 102.658 172.435 104.245C173.958 106.872 173.922 107.352 172.031 109.588C169.373 112.731 168.564 111.923 168.076 105.646C167.769 101.687 168.102 100.354 169.586 99.5814C172.068 98.2903 172.081 98.2933 171.37 99.9455ZM100.995 120.283C101.806 120.573 102.776 120.536 103.15 120.204C103.523 119.87 102.86 119.634 101.675 119.677C100.364 119.725 100.098 119.963 100.995 120.283ZM104.017 132.639C103.634 133.191 103.858 133.642 104.513 133.642C105.167 133.642 105.704 133.191 105.704 132.639C105.704 132.087 105.481 131.636 105.208 131.636C104.934 131.636 104.399 132.087 104.017 132.639ZM283.237 141.44L280.292 144.222L283.322 147.459C287.297 151.708 288.386 151.586 285.498 147.218C283.134 143.643 283.402 141.667 286.254 141.667C287.145 141.667 287.873 140.99 287.873 140.163C287.873 137.948 286.543 138.315 283.237 141.44ZM275.361 147.435C273.962 149.026 274.002 149.061 275.785 147.815C277.659 146.503 278.254 145.68 277.328 145.68C277.095 145.68 276.208 146.469 275.361 147.435ZM271.903 150.837C271.593 151.587 272.908 153.308 274.827 154.664C277.286 156.402 277.781 156.55 276.504 155.166C275.509 154.086 274.193 152.364 273.581 151.339C272.744 149.939 272.325 149.814 271.903 150.837ZM0 159.1C0 161.875 1.07953 163.126 7.59043 167.902C16.6327 174.536 28.4748 180.794 27.4414 178.392C27.0646 177.514 24.1511 175.133 20.9687 173.1C17.7851 171.067 11.7657 166.358 7.59043 162.635L0 155.863V159.1ZM202.411 157.718C202.411 158.269 202.948 158.722 203.603 158.722C204.257 158.722 204.481 158.269 204.098 157.718C203.715 157.166 203.181 156.715 202.908 156.715C202.634 156.715 202.411 157.166 202.411 157.718ZM115.323 160.261C113.583 161.435 113.42 161.993 114.525 162.98C115.632 163.966 116.136 163.915 116.978 162.726C117.936 161.374 118.489 158.673 117.792 158.754C117.637 158.77 116.526 159.45 115.323 160.261ZM265.198 159.498C263.55 159.687 261.921 160.492 261.578 161.288C261.105 162.386 261.961 162.736 265.137 162.747C267.862 162.757 272.164 164.146 277.473 166.727C285.268 170.518 288.996 170.89 282.532 167.233C280.832 166.271 278.175 164.443 276.628 163.169C273.185 160.333 269.166 159.044 265.198 159.498ZM285.843 162.232C285.866 163.888 286.118 164.443 286.405 163.467C286.689 162.491 286.67 161.137 286.363 160.457C286.054 159.779 285.821 160.577 285.843 162.232ZM128.849 161.596C128.365 162.295 128.273 163.139 128.644 163.469C129.65 164.367 130.748 163.047 130.203 161.593C129.823 160.572 129.558 160.572 128.849 161.596ZM198.475 161.73C198.093 162.282 198.287 162.735 198.905 162.735C199.524 162.735 200.343 162.282 200.724 161.73C201.107 161.179 200.914 160.728 200.294 160.728C199.677 160.728 198.858 161.179 198.475 161.73ZM259.132 166.845C258.712 167.45 254.759 169.508 250.349 171.418C240.137 175.842 236.19 178.061 231.007 182.297C228.585 184.275 223.286 186.86 218.381 188.458C213.226 190.134 208.512 192.469 206.303 194.44C200.647 199.486 183.766 205.671 161.367 210.903C155.88 212.186 155.637 212.404 151.326 219.974C146.478 228.485 144.598 238.567 147.313 241.484C149.566 243.908 150.684 243.234 150.684 239.457C150.684 233.741 159.953 215.902 162.922 215.902C164.471 215.902 162.345 223.952 159.211 229.946C157.625 232.98 156.323 236.523 156.318 237.818C156.311 239.11 155.447 241.468 154.398 243.053C153.348 244.637 152.85 246.257 153.292 246.652C154.705 247.913 156.465 245.361 157.101 241.13C157.527 238.305 158.377 236.836 159.824 236.426C160.982 236.098 161.93 235.037 161.93 234.066C161.93 233.096 163.194 229.072 164.741 225.124C166.286 221.176 167.552 217.062 167.552 215.981C167.552 214.898 168.131 213.695 168.839 213.304C169.778 212.786 169.974 214.486 169.566 219.591C169.25 223.522 169.63 229.19 170.432 232.53L171.861 238.474L171.955 231.657C172.076 222.994 174.992 212.539 177.946 210.192C180.199 208.401 180.219 208.421 179.508 211.889C177.618 221.12 174.873 241.985 175.547 241.985C176.959 241.985 177.811 238.519 178.753 228.947C179.599 220.343 182.11 211.912 184.55 209.466C185.055 208.96 185.359 214.451 185.225 221.665C184.989 234.425 185.074 234.952 188.355 240.876L191.729 246.966L199.318 246.984C203.495 246.994 206.909 246.626 206.909 246.171C206.909 245.715 205.73 244.355 204.289 243.147C200.643 240.092 197.113 233.348 196.184 227.665C195.508 223.53 195.793 222.347 198.276 219.001C201.189 215.073 204.276 206.837 204.888 201.364C205.093 199.526 205.944 198.242 207.088 198.049C209.633 197.618 210.77 202.639 209.238 207.56C207.794 212.2 207.689 215.902 209.001 215.902C209.535 215.902 211.07 213.342 212.411 210.215C214.371 205.642 214.704 203.382 214.108 198.678C213.255 191.959 214.73 190.91 217.745 196.089C218.953 198.166 219.831 198.846 220.166 197.962C220.463 197.175 221.996 198.91 223.71 201.975C230.644 214.377 233.316 218.354 233.654 216.786C233.847 215.892 231.473 210.479 228.378 204.758C223.07 194.95 222.847 194.219 224.473 192.006C225.422 190.713 225.904 188.979 225.549 188.15C224.038 184.641 227.93 187.802 230.779 192.395C233.863 197.371 234.891 197.297 232.741 192.253C232.105 190.761 231.842 189.313 232.155 189.034C232.892 188.376 238.37 198.849 238.384 200.943C238.397 202.888 247.789 221.674 249.523 223.221C251.787 225.24 250.914 222.379 246.316 212.714C238.653 196.602 233.032 183.329 233.542 182.546C234.737 180.709 238.514 182.098 241.713 185.556C246.723 190.966 254.803 205.478 256.261 211.687C257.947 218.855 257.781 224.027 255.789 226.376C254.611 227.764 254.138 231.003 254.138 237.662V247H271.006H312L287.836 237.721C287.799 228.505 289.936 233.529 287.836 235.773C286.675 237.016 283.216 234.879 282.781 237.223C285.464 234.169 289.793 227.861 286.268 221.338C284.219 217.543 283.087 219.488 280.639 218.13C278.561 216.978 274.197 218.199 272.598 217.328C269.816 215.814 260.129 225.705 260.081 216.834C260.034 207.762 259.917 207.361 254.555 197.969C251.543 192.69 247.413 186.143 245.378 183.418C243.08 180.34 242.078 178.108 242.731 177.524C244.671 175.793 251.963 179.96 256.617 185.46C259.113 188.41 261.379 190.822 261.654 190.822C263.098 190.822 255.385 180.214 252.025 177.582C248.35 174.704 248.233 174.429 250.148 173.177C251.273 172.444 254.47 171.54 257.255 171.168C261.794 170.56 263.341 170.956 272.259 175.006C277.727 177.492 281.971 179.19 281.688 178.783C281.109 177.946 261.187 165.743 260.401 165.743C260.123 165.743 259.55 166.239 259.132 166.845ZM193.315 171.37C192.039 172.738 192.129 173.189 193.905 174.347C196.546 176.069 197.913 175.338 197.913 172.206C197.913 169.392 195.553 168.962 193.315 171.37ZM155.182 175.776C155.182 176.328 155.718 176.778 156.373 176.778C157.027 176.778 157.251 176.328 156.869 175.776C156.486 175.224 155.951 174.772 155.678 174.772C155.405 174.772 155.182 175.224 155.182 175.776ZM173.174 175.657C173.174 176.209 173.679 176.939 174.299 177.28C174.918 177.62 175.423 177.449 175.423 176.897C175.423 176.345 174.918 175.614 174.299 175.274C173.679 174.932 173.174 175.105 173.174 175.657ZM263.135 188.092C263.135 188.283 264.718 189.767 266.654 191.388C269.589 193.844 269.957 193.961 268.878 192.1C267.792 190.23 263.135 186.979 263.135 188.092ZM262.027 194.853C262.011 196.355 267.202 203.863 268.257 203.863C268.814 203.863 265.277 197.558 263.196 194.835C262.175 193.5 262.043 193.504 262.027 194.853ZM54.8062 200.449C53.2758 201.813 53.9561 202.861 56.3704 202.861C60.1488 202.861 75.0889 207.926 90.5363 214.446C95.9463 216.73 97.4206 216.99 99.222 215.987C101.193 214.888 125.485 214.154 126.612 215.159C126.847 215.368 125.304 217.228 123.185 219.293C118.533 223.822 116.275 228.908 114.331 239.226L112.867 247H119.307H125.747L126.487 243.093C127.82 236.055 133.116 227.647 138.997 223.237C142.023 220.967 145.413 217.711 146.531 216L148.562 212.892H136.249C110.771 212.892 85.737 209.398 68.0327 203.371C58.2438 200.038 55.8565 199.51 54.8062 200.449ZM197.128 214.12C193.816 219.177 192.29 218.8 192.29 212.93C192.29 208.644 192.806 207.332 195.383 205.073L198.475 202.359L198.824 206.678C199.053 209.514 198.471 212.069 197.128 214.12ZM217.601 205.87C218.696 210.643 224.108 221.896 225.314 221.91C226.644 221.925 225.672 218.622 222.072 210.887C218.423 203.047 216.44 200.821 217.601 205.87ZM134.975 223.87C134.33 224.945 133.223 226.141 132.512 226.534C131.646 227.012 131.52 226.783 132.131 225.838C134.543 222.109 137.089 220.348 134.975 223.87ZM164.763 239.551C165.958 244.371 166.364 245.147 167.393 244.58C168.779 243.815 167.62 239.271 165.669 237.827C164.284 236.802 164.147 237.064 164.763 239.551Z" fill="black" stroke="black" stroke-width="2" mask="url(#path-1-inside-1_327_2020)"/>
</svg>
